_________________________  Visit us at _________________________
  
http://p2pdl.com  ____________________________  http://p2pdl.com


Clueless 1995 BRRip 720p x264 AAC - PRiSTiNE

Genre: Comedy | Romance
Plot: A US West Coast teen lifestyle parody centered around Cher, 
a popular high school girl who spends her days playing match-maker, 
helping her friends with fashion choices, and looking for a boyfriend.
Director: Amy Heckerling
Stars: Alicia Silverstone, Stacey Dash, Brittany Murphy
Rated: Rated PG-13 for sex related dialogue and some teen use of alcohol and drugs

Info: 
http://www.imdb.com/title/tt0112697/


General
Complete name                  : Clueless 1995 BRRip 720p x264 AAC - PRiSTiNE.mp4
Format                         : MPEG-4
Format profile                 : Base Media
Codec ID                       : isom
File size                      : 593 MiB
Duration                       : 1h 37mn
Overall bit rate mode          : Variable
Overall bit rate               : 852 Kbps

Source                         : 720p BluRay HD4U (Thanks)

Video
Format                         : AVC
Format/Info                    : Advanced Video Codec
Format profile                 : High@L4.1
Bit rate                       : 765 Kbps
Width                          : 1 280 pixels
Height                         : 720 pixels
Display aspect ratio           : 16:9
Frame rate mode                : Constant
Frame rate                     : 23.976 fps
Color space                    : YUV
Chroma subsampling             : 4:2:0
Bit depth                      : 8 bits
Scan type                      : Progressive
Bits/(Pixel*Frame)             : 0.035
Stream size                    : 532 MiB (90%)
Writing library                : x264 core 129 r2245 bc13772

Audio
Format                         : AAC
Bit rate mode                  : Variable
Bit rate                       : 84.0 Kbps
Channel(s)                     : 2 channels
Channel positions              : Front: L R
Sampling rate                  : 48.0 KHz / 24.0 KHz
Stream size                    : 58.4 MiB (10%)
Language                       : English


Subtitle                       : Yes (English)

Screens: 
http://imgr.us/images/q88wt78fja48z6bz9xs7.jpg 
http://imgr.us/images/fbmegse9f3bjcbsiw5jl.jpg 
http://imgr.us/images/8846ym49zfuwd3gj8nlr.jpg 
http://imgr.us/images/pghu9r9f47g7n3w0r2f.jpg 
http://imgr.us/images/jh4xzxm6mncpjvn858q0.jpg

----------------------------------------------------------------------------------------------------
Recommend to you to use latest version of VLC player. Install K-Lite Codec Pack or shark007 codecs
in case of any kind of problem in playback (For non-VLC Media Player users). Alternatively, install
Core AVC codecs, the fastest decoder that there is coupled with Community Center Codec Pack and play
on Windows Media Player Classic. Check sample to be sure.
Enjoy!

Encoder Notes: Encoder Notes: Looking For Early Access To Anything You Can Provide DVDScr, R5, DVDR, BluRay, Direct
Audio, Music Releases and Seedboxes. We require dedicated servers, so as to do more and fast releases of movies.
If You Got anything to offer contact us at "prg@hush.com".